<mxfile host="app.diagrams.net" modified="2023-10-12T11:06:32.553Z" agent="Mozilla/5.0 (Macintosh; Intel Mac OS X 10_15_7) AppleWebKit/605.1.15 (KHTML, like Gecko) Version/16.3 Safari/605.1.15" version="22.0.4" etag="3Lvi0B72f7FMsPv7apeV" type="github">
  <diagram name="Page-1" id="yOKmYQuswJWHOCCd62I3">
    <mxGraphModel>
      <root>
        <mxCell id="0" />
        <mxCell id="1" parent="0" />
      </root>
    </mxGraphModel>
  </diagram>
</mxfile>
